<svg viewBox="0 0 512 512" xmlns="http://www.w3.org/2000/svg"><path d="M306.767 236.092c-7.2 0-5.814 7.73-7.369 12.392a18.976 18.976 0 0 1-36.544-1.953 11.08 11.08 0 0 0 1.873-1.863l14.49-18.53c5.545-7.092.32-17.775-8.665-17.775h-28.983a10.998 10.998 0 0 0-8.664 17.775l14.492 18.53v.002a11.11 11.11 0 0 0 1.786 1.807c-3.616 16.844-26.957 20.178-35.21 5.1a18.96 18.96 0 0 1-1.907-5.162c-.418-1.968-.12-4.122-.778-6.02a6.46 6.46 0 0 0-9.265-3.43c-6.775 3.965-1.791 16.48 1.154 21.517a32.08 32.08 0 0 0 21.055 15.141v33.365a31.779 31.779 0 0 0 63.557 0v-33.365a32.072 32.072 0 0 0 21.055-15.14c3.04-5.202 9.063-22.391-2.077-22.391Zm-50.756 89.875a19 19 0 0 1-18.98-18.979v-33.364a31.804 31.804 0 0 0 18.98-12.087 31.802 31.802 0 0 0 18.978 12.086v33.365a19 19 0 0 1-18.978 18.979Z" fill="#3c58c9" class="fill-000000"></path><path d="M425.29 101.668 360.266 67.35a25.021 25.021 0 0 0-27.648 2.605 25.65 25.65 0 0 0-5.778 6.559 70.985 70.985 0 0 0-29.445-6.428h-82.77a70.999 70.999 0 0 0-29.446 6.427 25.651 25.651 0 0 0-5.777-6.559 25.027 25.027 0 0 0-27.648-2.604l-65.09 34.354c-20.868 11.337-25.05 38.46-23.542 60.026.247 3.526.212 7.774 3.79 9.703a6.387 6.387 0 0 0 5.766.156l7.473-3.52c-1.586 9.742-1.983 23.319 3.682 36.576a6.4 6.4 0 0 0 8.471 3.34l6.67-2.947c3.383 11.932 12.24 35.645 33.53 60.14a6.399 6.399 0 0 0 11.011-2.542l.129-.479c-.358 17.802-23.123 27.48-23.34 27.571a6.397 6.397 0 0 0-3.393 8.588c.373.813 8.333 17.725 25.332 22.836-3.01 15.209-5.897 52 26.88 81.72a6.4 6.4 0 0 0 8.947-.34l20.338-21.488c5.481 14.606 19.481 40.834 53.937 65.416.092.066.2.086.294.146a6.315 6.315 0 0 0 1.197.598c.168.063.33.135.501.183a6.403 6.403 0 0 0 1.69.259h.07a6.406 6.406 0 0 0 1.692-.26c.17-.047.331-.119.499-.181a6.305 6.305 0 0 0 1.199-.599c.094-.06.201-.08.293-.146 34.456-24.582 48.456-50.81 53.94-65.416l20.337 21.488a6.398 6.398 0 0 0 8.947.34c32.794-29.736 29.886-66.552 26.874-81.745 16.932-5.145 24.86-21.999 25.232-22.811a6.411 6.411 0 0 0-3.38-8.583c-.23-.096-22.986-9.771-23.351-27.567l.126.47a6.399 6.399 0 0 0 11.01 2.542c21.291-24.495 30.148-48.208 33.53-60.139l6.67 2.947a6.401 6.401 0 0 0 8.473-3.34c5.664-13.259 5.267-26.835 3.681-36.577l7.474 3.52a6.397 6.397 0 0 0 5.765-.157c3.282-1.768 3.434-5.278 3.7-8.513a106.304 106.304 0 0 0 .287-12.21c-.382-11.58-2.528-23.579-8.385-33.72a40.044 40.044 0 0 0-15.422-15.32ZM134.416 247.14c-20.403-27.505-24.637-51.822-24.68-52.081a6.404 6.404 0 0 0-3.264-4.607 6.484 6.484 0 0 0-5.64-.23l-7.319 3.235c-4.486-17.369 2.078-34.422 2.148-34.599a6.4 6.4 0 0 0-8.671-8.162l-11.305 5.326c-.255-12.493 1.62-34.668 17.02-43.035l65.024-34.319a12.553 12.553 0 0 1 17.984 14.35v.002Zm245.83 51.064c-3.457 4.677-9.704 10.895-18.765 11.553a6.388 6.388 0 0 0-5.242 9.27c1.746 6.064 10.164 40.933-17.355 69.983l-23.517-24.847a6.4 6.4 0 0 0-10.97 3.403c-.055.344-5.783 33.761-48.334 65.743-42.218-31.756-48.28-65.424-48.334-65.743a6.4 6.4 0 0 0-10.97-3.403l-23.518 24.847c-29.554-31.198-17.656-69.127-17.09-70.86.016-.047.017-.096.032-.144a6.405 6.405 0 0 0 .157-.701c.035-.19.077-.376.095-.565.005-.047.02-.09.024-.136.01-.149-.013-.29-.013-.438a6.403 6.403 0 0 0-.02-.701c-.021-.205-.066-.4-.106-.599-.042-.205-.08-.409-.142-.608a6.284 6.284 0 0 0-.23-.593c-.077-.183-.15-.366-.245-.54-.098-.184-.214-.354-.329-.526-.114-.171-.225-.342-.355-.501-.127-.155-.268-.294-.409-.436a6.274 6.274 0 0 0-.458-.438c-.16-.133-.333-.246-.506-.363-.168-.114-.332-.23-.513-.329a6.388 6.388 0 0 0-.635-.285c-.136-.056-.258-.132-.4-.18-.045-.015-.09-.016-.136-.03a13.784 13.784 0 0 0-1.288-.257c-.046-.004-.088-.02-.135-.024-8.97-.651-15.247-6.89-18.738-11.57 9.211-5.39 24.674-17.293 24.674-36.443v-47.478l31.6-117.931a25.896 25.896 0 0 0 .879-7.48 58.166 58.166 0 0 1 25.67-5.969h82.77a58.17 58.17 0 0 1 25.668 5.969 25.872 25.872 0 0 0 .88 7.478l31.601 117.939v47.472c.002 19.172 15.497 31.08 24.703 36.461Zm56.07-142.19-11.287-5.318a6.4 6.4 0 0 0-8.672 8.163c.075.189 6.696 17.142 2.155 34.6l-7.322-3.236a6.4 6.4 0 0 0-8.906 4.836c-.044.269-4.149 24.456-24.68 52.087L336.307 93.02c-2.784-10.39 8.444-19.387 17.985-14.352l64.955 34.283c15.383 8.358 17.297 30.556 17.069 43.063Z" fill="#3c58c9" class="fill-000000"></path><path d="M219.936 172.967v-10.14a14.4 14.4 0 0 0-28.8 0v10.14a14.4 14.4 0 0 0 28.8 0ZM306.586 148.428a14.417 14.417 0 0 0-14.4 14.4v10.139a14.4 14.4 0 1 0 28.8 0v-10.14a14.417 14.417 0 0 0-14.4-14.4Z" fill="#3c58c9" class="fill-000000"></path></svg>